<svg width="24" height="24" viewBox="0 0 24 24" fill="none" xmlns="http://www.w3.org/2000/svg">
<path d="M12 6L12 20" stroke="" stroke-linecap="round"/>
<path d="M5.98056 3.28544C9.32175 3.9216 11.3131 5.25231 12 6.01628C12.6869 5.25231 14.6782 3.9216 18.0194 3.28544C19.7121 2.96315 20.5584 2.80201 21.2792 3.41964C22 4.03727 22 5.04022 22 7.04612V14.255C22 16.0891 22 17.0061 21.5374 17.5787C21.0748 18.1512 20.0564 18.3451 18.0194 18.733C16.2037 19.0787 14.7866 19.6295 13.7608 20.1831C12.7516 20.7277 12.247 21 12 21C11.753 21 11.2484 20.7277 10.2392 20.1831C9.21344 19.6295 7.79633 19.0787 5.98056 18.733C3.94365 18.3451 2.9252 18.1512 2.4626 17.5787C2 17.0061 2 16.0891 2 14.255V7.04612C2 5.04022 2 4.03727 2.72078 3.41964C3.44157 2.80201 4.2879 2.96315 5.98056 3.28544Z" stroke="" stroke-linecap="round" stroke-linejoin="round"/>
<path d="M7.25217 2.90869C9.98197 3.55838 11.6089 4.9174 12.1701 5.69762C12.7313 4.9174 14.3583 3.55838 17.0881 2.90869C18.471 2.57956 19.1625 2.41499 19.7514 3.04576C20.3403 3.67652 20.3403 4.7008 20.3403 6.74936V14.1115C20.3403 15.9846 20.3403 16.9212 19.9623 17.5059C19.5844 18.0906 18.7523 18.2887 17.0881 18.6847C15.6046 19.0378 14.4468 19.6004 13.6088 20.1657C12.7842 20.7219 12.3719 21 12.1701 21C11.9683 21 11.5561 20.7219 10.7315 20.1657C9.89348 19.6004 8.73568 19.0378 7.25217 18.6847C5.58799 18.2887 4.7559 18.0906 4.37795 17.5059C4 16.9212 4 15.9846 4 14.1115V6.74936C4 4.7008 4 3.67652 4.58889 3.04576C5.17778 2.41499 5.86924 2.57956 7.25217 2.90869Z" fill="" stroke="" stroke-linecap="round" stroke-linejoin="round"/>
<path d="M12.1699 5.68164L12.1699 19.9794" stroke="" stroke-linecap="round"/>
</svg>
