
<svg width="11" height="10" viewBox="0 0 11 10" fill="none" xmlns="http://www.w3.org/2000/svg">
<path d="M9.41753 5.65222H6.15222V8.91753C6.15222 9.09073 6.08342 9.25684 5.96095 9.37931C5.83847 9.50179 5.67237 9.57059 5.49916 9.57059C5.32596 9.57059 5.15985 9.50179 5.03738 9.37931C4.91491 9.25684 4.8461 9.09073 4.8461 8.91753V5.65222H1.5808C1.40759 5.65222 1.24148 5.58342 1.11901 5.46095C0.996539 5.33847 0.927734 5.17237 0.927734 4.99916C0.927734 4.82596 0.996539 4.65985 1.11901 4.53738C1.24148 4.41491 1.40759 4.3461 1.5808 4.3461H4.8461V1.0808C4.8461 0.907593 4.91491 0.741484 5.03738 0.619011C5.15985 0.496539 5.32596 0.427734 5.49916 0.427734C5.67237 0.427734 5.83847 0.496539 5.96095 0.619011C6.08342 0.741484 6.15222 0.907593 6.15222 1.0808V4.3461H9.41753C9.59073 4.3461 9.75684 4.41491 9.87931 4.53738C10.0018 4.65985 10.0706 4.82596 10.0706 4.99916C10.0706 5.17237 10.0018 5.33847 9.87931 5.46095C9.75684 5.58342 9.59073 5.65222 9.41753 5.65222Z" fill=""/>
</svg>
